Coordinates
version=1
nRows=10
nColumns=40
inDegrees=yes

Units are S.I. units (second, meters, Newtons, ...)
Angles are in degrees.

endheader
time	pelvis_tilt	pelvis_list	pelvis_rotation	pelvis_tx	pelvis_ty	pelvis_tz	hip_flexion_r	hip_adduction_r	hip_rotation_r	knee_angle_r	knee_angle_r_beta	ankle_angle_r	subtalar_angle_r	mtp_angle_r	hip_flexion_l	hip_adduction_l	hip_rotation_l	knee_angle_l	knee_angle_l_beta	ankle_angle_l	subtalar_angle_l	mtp_angle_l	lumbar_extension	lumbar_bending	lumbar_rotation	arm_flex_r	arm_add_r	arm_rot_r	elbow_flex_r	pro_sup_r	wrist_flex_r	wrist_dev_r	arm_flex_l	arm_add_l	arm_rot_l	elbow_flex_l	pro_sup_l	wrist_flex_l	wrist_dev_l
      0.79000000	     -1.56769270	     -1.22568402	      4.45198122	     -0.38773231	      0.88910268	      1.53341239	      7.20964619	      2.75184560	    -13.34195414	    -22.62198191	     -0.39482807	     13.26767612	     -3.18229574	      2.33742145	     29.36615869	      6.81716640	      8.96418696	    -47.43180908	     -0.82784124	     10.27120389	     18.22741815	     18.17790581	     -4.28920622	      1.31026234	     -3.49997056	      3.99386765	     -9.38931405	    -19.19998269	     30.64206254	     89.95437384	      0.00000000	      0.00000000	     -4.21973722	      7.43419614	     20.65894141	     25.37403923	     89.95437384	      0.00000000	      0.00000000
      0.80000000	     -1.76195860	     -1.39834979	      4.43999401	     -0.38234583	      0.88832741	      1.53316872	      7.08656945	      2.93650483	    -13.43885540	    -22.71200068	     -0.39639919	     13.33355087	     -3.17849472	      2.25520911	     30.10710016	      7.03015840	      9.22297269	    -45.82977157	     -0.79988041	     10.30127541	     17.97734277	     17.97658003	     -4.18752248	      1.49127194	     -3.45637460	      4.21004246	     -9.47736351	    -19.14097513	     31.06763098	     89.95437384	      0.00000000	      0.00000000	     -4.56652585	      7.40516248	     20.66089477	     25.30439111	     89.95437384	      0.00000000	      0.00000000
      0.81000000	     -1.80809801	     -1.12020865	      4.23807899	     -0.37686823	      0.88801234	      1.53283422	      6.70417254	      2.68015872	    -12.95958118	    -22.68354843	     -0.39590261	     13.77665835	     -3.12769835	      2.04685245	     30.30537496	      6.73001942	      9.55177783	    -43.69371961	     -0.76259927	     10.03252809	     17.69213630	     17.69092665	     -4.30152253	      1.19150754	     -3.13485949	      4.31662294	     -9.57740372	    -18.96817027	     31.55586232	     89.95437384	      0.00000000	      0.00000000	     -4.59872792	      7.35844887	     20.98337626	     24.89085573	     89.95437384	      0.00000000	      0.00000000
      0.82000000	     -1.89340174	     -1.14127960	      4.07101491	     -0.37143976	      0.88746690	      1.53257481	      6.46919034	      2.69800016	    -12.85229618	    -22.80928521	     -0.39809713	     13.98060465	     -3.12173644	      1.89939825	     30.70417134	      6.81160838	      9.84577717	    -41.80702019	     -0.72967015	      9.84098588	     17.35868960	     17.40211141	     -4.35680481	      1.21154208	     -2.87929247	      4.49572544	     -9.67921233	    -18.88682162	     31.96610687	     89.95437384	      0.00000000	      0.00000000	     -4.80002772	      7.30607436	     21.15757328	     24.78901270	     89.95437384	      0.00000000	      0.00000000
      0.83000000	     -1.85063776	     -0.93697917	      3.85913692	     -0.36560870	      0.88716296	      1.53214954	      5.97031000	      2.48436971	    -12.62389679	    -22.81676522	     -0.39822768	     14.28455129	     -3.05032774	      1.68520864	     30.74223744	      6.69310394	     10.38486332	    -39.71162898	     -0.69309868	      9.53721272	     17.04602278	     16.97694973	     -4.51380790	      0.99408040	     -2.61570819	      4.68221258	     -9.73972898	    -18.76783988	     32.28899671	     89.95437384	      0.00000000	      0.00000000	     -4.89526542	      7.25954173	     21.47851403	     24.41249864	     89.95437384	      0.00000000	      0.00000000
      0.84000000	     -2.03630970	     -1.09778427	      3.76493466	     -0.36012624	      0.88631279	      1.53172794	      5.83367694	      2.62740152	    -12.61601796	    -22.91918710	     -0.40001528	     14.41271404	     -2.96861465	      1.56891391	     31.26479595	      6.87857266	     10.54824791	    -37.89946665	     -0.66147048	      9.36257133	     16.51212486	     16.66542902	     -4.42094291	      1.16333079	     -2.47267158	      4.85930558	     -9.83553169	    -18.63846577	     32.62859415	     89.95437384	      0.00000000	      0.00000000	     -5.14842166	      7.21303991	     21.54368727	     24.35778376	     89.95437384	      0.00000000	      0.00000000
      0.85000000	     -2.11612186	     -0.74843464	      3.42194378	     -0.35466775	      0.88579284	      1.53116698	      5.49620264	      2.11897226	    -12.76830386	    -22.89376424	     -0.39957156	     14.86637512	     -2.25301966	      1.03393933	     31.34158008	      6.66844423	     11.30010960	    -35.74146341	     -0.62380622	      8.78457453	     15.90339812	     15.67554707	     -4.51044667	      0.78263267	     -2.16154747	      5.10395521	     -9.88204467	    -18.47632713	     32.88050743	     89.95437384	      0.00000000	      0.00000000	     -5.16597442	      7.15950418	     22.04770930	     23.98095369	     89.95437384	      0.00000000	      0.00000000
      0.86000000	     -2.38021499	     -0.88592985	      3.33657600	     -0.34894783	      0.88484017	      1.53059414	      5.40445947	      2.22366318	    -12.77173188	    -22.95449152	     -0.40063146	     15.07871408	     -2.16152707	      0.87828816	     31.88536554	      6.81654583	     11.47189016	    -33.99636329	     -0.59334847	      8.38914859	     15.25450460	     15.35758101	     -4.27961051	      0.91478217	     -2.03171315	      5.25599489	     -9.96374218	    -18.31097525	     33.09362659	     89.95437384	      0.00000000	      0.00000000	     -5.40728568	      7.14319637	     22.01849693	     23.88320948	     89.95437384	      0.00000000	      0.00000000
      0.87000000	     -2.60243096	     -0.97473931	      3.26646341	     -0.34321995	      0.88388169	      1.52993322	      5.26828890	      2.27817535	    -12.79395547	    -23.00819895	     -0.40156883	     15.35440736	     -2.16794799	      0.75308124	     32.38363172	      6.94434526	     11.81688142	    -32.37116619	     -0.56498343	      7.95304857	     14.58570773	     15.10854795	     -4.10027498	      0.98370564	     -1.96882653	      5.44041585	    -10.01352784	    -18.17099450	     33.26618798	     89.95437384	      0.00000000	      0.00000000	     -5.61005973	      7.14610215	     22.01862679	     23.71399190	     89.95437384	      0.00000000	      0.00000000
      0.88000000	     -2.83887322	     -0.92680393	      3.10811961	     -0.33755506	      0.88306857	      1.52920964	      5.18503557	      2.17453431	    -12.56931324	    -23.17750040	     -0.40452369	     15.57719684	     -2.14396943	      0.58466481	     32.72353132	      6.92133077	     12.12418740	    -30.53303153	     -0.53290193	      7.06935752	     13.40776477	     14.73733410	     -3.93755351	      0.90839365	     -1.82151565	      5.63249838	    -10.04604844	    -17.97518739	     33.39028087	     89.95437384	      0.00000000	      0.00000000	     -5.72952087	      7.16912477	     22.06411638	     23.50916517	     89.95437384	      0.00000000	      0.00000000
